<?xml version="1.0" encoding="utf-8"?>
<!-- Generator: Adobe Illustrator 23.0.4, SVG Export Plug-In . SVG Version: 6.00 Build 0)  -->
<svg version="1.1" id="Layer_1" xmlns="http://www.w3.org/2000/svg" xmlns:xlink="http://www.w3.org/1999/xlink" x="0px" y="0px"
	 viewBox="0 0 452 100" style="enable-background:new 0 0 452 100;" xml:space="preserve">
<style type="text/css">
	.st0{fill:#ED1E24;}
</style>
<g>
	<path class="st0" d="M26.1,46.9c-0.3,0.5-0.2,0.9-0.2,1.3c0,8.8,0,17.7,0,26.5c0,1.1,0.2,1.7,1.4,1.9c1,0.1,2,0.6,3,0.7
		c1.4,0.1,1.6,0.8,1.6,2c-0.1,5.6-0.1,11.3,0,16.9c0,1.1-0.3,1.4-1.4,1.4c-9.5,0-19,0-28.4,0c-1,0-1.3-0.3-1.3-1.3
		c0.1-5.8,0-11.7,0-17.5c0-0.9,0.2-1.3,1.1-1.5C3.4,77,5,76.4,6.6,76C7.7,75.7,8,75.3,8,74.1c-0.1-9,0-17.9,0-26.9
		C8,42,8,36.8,8,31.6c0-0.9-0.2-1.3-1.2-1.3C5,30.3,3.2,30,1.4,29.9c-0.7,0-0.7-0.3-0.7-0.9c0-6.4,0-12.8,0-19.2
		c0-1.2,0.8-0.9,1.4-0.9c11.9,0,23.8,0,35.7,0c1.4,0,2.8,0,4.2,0c0.8,0,1.2,0.2,1.4,1.1c3.1,10.4,6.3,20.9,9.4,31.3
		c0.3,0.9,0.6,1.8,0.9,2.9c1-1.9,1.3-3.6,1.8-5.3c2.7-8.9,5.4-17.7,8.1-26.6c1-3.4,1-3.4,4.6-3.4c12.2,0,24.4,0,36.6,0
		c1.1,0,1.4,0.3,1.4,1.4c-0.1,6.2-0.1,12.3,0,18.5c0,1-0.3,1.1-1.2,1.1c-1.5,0-3.1,0.1-4.6,0.1c-0.9,0-1.3,0.4-1.3,1.4
		c0,14.8,0,29.7,0,44.5c0,1,0.3,1.3,1.2,1.4c1.6,0.1,3.3,0.3,4.9,0.3c0.7,0,0.9,0.3,0.9,1c0,6.1,0,12.1,0,18.2c0,1-0.6,0.9-1.2,0.9
		c-5.1,0-10.2,0-15.3,0c-8.3,0-16.6,0-24.9,0c-1.4,0-1.7-0.4-1.7-1.7c0.1-5.6,0.1-11.3,0-16.9c0-1.2,0.4-1.5,1.5-1.6
		c1.5-0.1,3-0.3,4.5-0.4c0.6-0.1,1.1-0.1,1.1-0.9c0-10.4,0-20.8-0.3-31.3c-0.6,1.9-1.3,3.8-1.9,5.7c-3.9,12.2-7.7,24.3-11.6,36.5
		c-1,3.2-2,6.3-3,9.5c-0.2,0.8-0.5,1.2-1.4,1.1c-3.2-0.1-6.4,0-9.5,0c-0.8,0-1.1-0.3-1.4-1c-4.2-14.2-8.5-28.4-12.8-42.5
		c-0.6-2-1.2-4.1-1.8-6.1C26.4,47.7,26.2,47.3,26.1,46.9z"/>
	<path class="st0" d="M405.8,62.5c0,5,0.1,10,0,15c-0.1,4.2,2.7,5.1,5.8,3.7c0.8-0.4,1.1-0.2,1.5,0.4c1,1.7,2.1,3.4,3.1,5.1
		c0.3,0.5,0.3,0.8,0,1.2c-5.1,8.3-13.7,12.3-22.9,10.9c-5.5-0.8-9.9-3.5-12.4-8.7c-0.6-1.1-0.9-0.3-1.2,0.1c-3.1,3.3-6.7,6-11,7.5
		c-6.8,2.4-13.5,1.9-19.8-1.7c-5.5-3.2-7.6-8.5-7.9-14.6c-0.6-11.4,6.3-18.3,16.4-20.9c6.7-1.7,13.6-1.9,20.4-0.6
		c1.1,0.2,1.5,0.1,1.5-1.1c-0.1-3.2,0-6.4-0.2-9.7c-0.2-3.7-1.8-5.6-5.4-6.3c-2.6-0.5-5.3-0.6-7.9,0.2c-1.3,0.4-1.4,0.8-0.4,1.8
		c3.6,3.4,3,9.2-1.3,11.8c-3.9,2.4-10.8,2.1-14.5-0.7c-3.6-2.7-5-8.1-3.5-13.1c1.6-5.2,5.5-8.2,10.2-10.3c5.2-2.5,10.8-3.5,16.5-3.9
		c5.9-0.3,11.8-0.3,17.6,1.1c5.3,1.3,10,3.5,12.9,8.5c1.9,3.2,2.5,6.7,2.5,10.3C405.8,53.3,405.7,57.9,405.8,62.5
		C405.8,62.5,405.8,62.5,405.8,62.5z M379.1,76c0-1.1-0.1-2.1,0-3.2c0.1-0.9-0.4-1.4-1.2-1.5c-2.1-0.3-4.3-0.4-6.4,0
		c-2.6,0.5-4.2,2.1-4.3,4.5c-0.2,2.8,0.9,4.6,3.7,5.3c2.3,0.6,4.7,0.5,7-0.3c1-0.3,1.4-0.9,1.3-2C379.1,77.9,379.1,77,379.1,76z"/>
	<path class="st0" d="M157.2,67.8c-6.3,0-12.6,0-18.9,0c-1.3,0-1.6,0.4-1.4,1.6c0.6,3.5,1.5,6.9,4.2,9.6c1.2,1.2,2.7,2.1,4.3,2.5
		c9,2.2,14.8,0.1,19.5-7.7c1-1.7,1-1.7,2.8-0.9c3.2,1.5,6.5,3.1,9.7,4.5c1.1,0.5,1.1,1,0.7,1.9c-3.1,7.8-8.4,13.6-16,17.3
		c-7,3.4-14.4,3.9-21.9,3.1c-7.2-0.7-13.9-3.1-19.6-7.8c-6.6-5.5-10.2-12.6-11.3-21c-1-7.4-0.2-14.5,2.7-21.4
		c3.8-9.1,10.6-15.2,19.9-18.4c8.1-2.8,16.4-3.3,24.7-0.8c8.9,2.6,14.9,8.4,18.3,16.9c2.5,6.1,3.2,12.4,3.1,18.9
		c0,1.3-0.5,1.8-1.9,1.8C169.9,67.8,163.6,67.8,157.2,67.8z M145.1,55.2C145.1,55.2,145.1,55.2,145.1,55.2c1.4,0,2.9,0,4.3,0
		c4.2,0,4.4-0.2,3.1-4.3c-0.8-2.5-2.3-4.3-5-4.9c-2.9-0.6-5.5,0.1-7.4,2.4c-1.4,1.7-2.1,3.7-2.7,5.8c-0.2,0.9,0.1,1.1,0.9,1.1
		C140.6,55.2,142.9,55.2,145.1,55.2z"/>
	<path class="st0" d="M330.8,39.4c0,12.1,0,24.3,0,36.4c0,1.3,0.4,1.6,1.6,1.6c1.5,0,3.1,0.2,4.6,0.2c0.8,0,1,0.3,1,1.1
		c0,6,0,12,0,18.1c0,0.7-0.2,1-0.9,0.9c-0.4,0-0.7,0-1.1,0c-12.6,0-25.1,0-37.7,0c-1.2,0-1.6-0.2-1.6-1.5c0.1-5.7,0.1-11.5,0-17.2
		c0-1,0.3-1.4,1.3-1.4c1.7,0,3.4-0.3,5.2-0.3c1,0,1.2-0.4,1.2-1.3c0-7.9,0-15.8,0-23.7c0-8.6,0-17.3,0-25.9c0-1.3-0.4-1.6-1.6-1.5
		c-2,0.2-4,0.2-6,0.4c-0.9,0.1-1.2-0.1-1.2-1c0-6,0-12,0-18.1c0-0.9,0.4-1.2,1.2-1.3c9.1-1.4,18.2-2.8,27.4-4.2
		c0.9-0.1,1.8-0.2,2.6-0.5c1.5-0.5,2.5,0.4,3.5,1.2c0.5,0.4,0.3,1,0.3,1.6C330.7,15.1,330.7,27.2,330.8,39.4
		C330.7,39.4,330.7,39.4,330.8,39.4z"/>
	<path class="st0" d="M215.6,99.9c-8.8,0.1-16.8-2-23.6-7.9c-5.9-5.2-9.2-11.9-10.3-19.6c-1.1-7.2-0.5-14.3,2.1-21.2
		c3.8-10,10.9-16.7,20.9-20.2c8.8-3.1,17.7-3.3,26.6-0.1c5.2,1.9,9.7,4.9,12.3,10c3.1,6.1,2,12.1-4.5,15.5c-1.9,1-3.9,1.5-6,1.7
		c-1.7,0.2-3.4,0.1-5-0.3c-3-0.6-4.9-2.3-5.5-5.4c-0.1-0.5-0.2-1-0.3-1.5c-0.5-4.6-3.6-6.2-7.9-4.1c-2.6,1.3-3.9,3.6-4.5,6.3
		c-1.5,6.5-1.7,13.1,0.3,19.6c1.6,5.3,5.3,8.3,10.3,8.7c5.9,0.5,10.7-2,13.3-6.9c0.1-0.2,0.2-0.5,0.4-0.8c1-2.1,1-2.1,3.2-1.2
		c3.2,1.3,6.4,2.7,9.7,4c0.6,0.2,1.1,0.4,0.8,1.3c-2.1,5.7-4.9,10.9-9.6,14.8c-6,5.1-13.1,7.1-20.8,7.3
		C216.7,99.9,216.2,99.9,215.6,99.9z"/>
	<path class="st0" d="M285.6,53.9c0,7.1,0,14.2,0,21.3c0,2.2,0,2.1,2.2,2.2c1.4,0.1,2.8,0.2,4.2,0.2c0.7,0,1,0.2,1,1
		c0,6.1,0,12.1,0,18.2c0,0.8-0.3,0.9-1,0.9c-1.9,0-3.7,0-5.6,0c-11.1,0-22.2,0-33.3,0c-1.1,0-1.5-0.2-1.5-1.4c0.1-5.7,0-11.4,0-17.1
		c0-1.2,0.3-1.7,1.5-1.7c1.7,0,3.4-0.2,5-0.3c0.8,0,1.2-0.3,1.2-1.3c0-6.6,0-13.2,0-19.7c0-0.9-0.3-1.2-1.2-1.1
		c-1.9,0.2-3.8,0.2-5.7,0.4c-0.8,0.1-1.1-0.2-1.1-1c0-6.1,0-12.1,0-18.2c0-0.8,0.3-1,1-1.2c7.2-1.3,14.5-2.7,21.7-4.1
		c2.7-0.5,5.4-1,8.1-1.6c2.1-0.4,3.5,0.8,3.5,2.8C285.6,39.4,285.6,46.7,285.6,53.9z"/>
	<path d="M424,85.8c0-8.2,5.6-13.9,13.7-13.9c7.8-0.1,13.6,5.9,13.7,13.9c0,8-5.7,13.6-14,13.6C429.6,99.3,424,93.6,424,85.8z"/>
	<path d="M424,47.5c-0.1-8.1,6.1-13.8,14-13.7c7.7,0.1,13.4,5.9,13.5,13.8c0,7.9-5.6,13.5-13.6,13.6C429.6,61.3,424,55.8,424,47.5z"
		/>
	<path class="st0" d="M258.5,14.1c0.1-5,2.6-8.6,6.9-11c6.1-3.4,14.6-1.7,18.6,3.6c4.1,5.4,3.3,12.4-1.9,16.8
		c-6.3,5.3-16.2,4.4-21.2-2.1C259.3,19.3,258.3,16.9,258.5,14.1z"/>
</g>
</svg>
